<svg style="position:absolute;width:0;height:0" xmlns="http://www.w3.org/2000/svg" overflow="hidden">
<defs>

<!-- wallets icons -->
<symbol id="wallets-bitcoin" width="48" height="48" viewBox="0 0 48 48">
<path d="M47.2816 29.8059C44.0758 42.663 31.0521 50.4877 18.192 47.2815C5.33717 44.076 -2.48842 31.0531 0.718921 18.1968C3.92326 5.33814 16.9469 -2.48728 29.8033 0.71819C42.6626 3.92366 50.4875 16.948 47.2816 29.8059Z" fill="#0D6EFD"/>
<path d="M34.5828 20.581C35.0606 17.3876 32.6288 15.6708 29.3037 14.5256L30.3823 10.1996L27.7488 9.54338L26.6987 13.7553C26.0064 13.5828 25.2953 13.4201 24.5887 13.2588L25.6463 9.01913L23.0143 8.36288L21.935 12.6873C21.3619 12.5568 20.7993 12.4279 20.2533 12.2921L20.2563 12.2786L16.6244 11.3718L15.9238 14.1843C15.9238 14.1843 17.8778 14.6321 17.8365 14.6598C18.9031 14.9261 19.0959 15.6318 19.0636 16.1913L17.835 21.1195C17.9085 21.1383 18.0038 21.1653 18.1088 21.2073C18.0211 21.1855 17.9273 21.1615 17.8305 21.1383L16.1083 28.0419C15.9778 28.3659 15.6471 28.8519 14.9015 28.6674C14.9277 28.7057 12.9873 28.1897 12.9873 28.1897L11.6799 31.2039L15.107 32.0581C15.7446 32.2179 16.3694 32.3851 16.9844 32.5426L15.8946 36.9181L18.5251 37.5743L19.6045 33.2454C20.323 33.4404 21.0206 33.6204 21.7032 33.7899L20.6276 38.0986L23.2611 38.7548L24.351 34.3876C28.8417 35.2374 32.2186 34.8946 33.64 30.8334C34.7853 27.5634 33.5829 25.6772 31.2202 24.4472C32.9409 24.0505 34.237 22.9188 34.5828 20.581ZM28.5657 29.0177C27.7518 32.2877 22.2455 30.5199 20.4603 30.0767L21.9065 24.28C23.6916 24.7255 29.4162 25.6075 28.5657 29.0177ZM29.3802 20.5338C28.6377 23.5082 24.0547 21.997 22.568 21.6265L23.8792 16.3691C25.3658 16.7396 30.1536 17.431 29.3802 20.5338Z" fill="#F8F9FA"/>
</symbol>
<symbol id="wallets-litecoin" width="48" height="48" viewBox="0 0 48 48">
<g clip-path="url(#clip0_9_643)">
<path d="M24 45.4024C35.8202 45.4024 45.4024 35.8202 45.4024 24C45.4024 12.1798 35.8202 2.59756 24 2.59756C12.1798 2.59756 2.59758 12.1798 2.59758 24C2.59758 35.8202 12.1798 45.4024 24 45.4024Z" fill="#F8F9FA"/>
<path d="M24 0C19.2532 0 14.6131 1.40758 10.6663 4.04473C6.71953 6.68188 3.64339 10.4302 1.82688 14.8156C0.0103797 19.201 -0.4649 24.0266 0.461145 28.6822C1.38719 33.3377 3.67297 37.6141 7.02943 40.9706C10.3859 44.327 14.6623 46.6128 19.3178 47.5388C23.9734 48.4649 28.799 47.9896 33.1844 46.1731C37.5698 44.3566 41.3181 41.2805 43.9553 37.3337C46.5924 33.3869 48 28.7468 48 24C48.0092 20.8574 47.3993 17.7438 46.2051 14.837C45.011 11.9301 43.256 9.2869 41.0403 7.05829C38.8247 4.82968 36.1917 3.05931 33.2919 1.84824C30.392 0.637178 27.282 0.00914422 24.1395 0H24ZM24.4068 24.8136L21.908 33.2397H35.2736C35.3621 33.2366 35.4504 33.251 35.5334 33.282C35.6164 33.3131 35.6924 33.3601 35.7572 33.4206C35.8219 33.481 35.8742 33.5537 35.9108 33.6343C35.9475 33.7149 35.9679 33.802 35.9709 33.8906V34.1114L34.8087 38.1211C34.7575 38.3107 34.6433 38.4772 34.4849 38.5934C34.3265 38.7096 34.1333 38.7684 33.937 38.7603H13.4818L16.9104 27.0799L13.0751 28.2421L13.9467 25.569L17.7821 24.4068L22.6053 8.01937C22.6584 7.83081 22.7731 7.66545 22.931 7.5496C23.089 7.43376 23.2812 7.37411 23.477 7.38015H28.6489C28.7374 7.37704 28.8257 7.39142 28.9087 7.42245C28.9917 7.45349 29.0677 7.50058 29.1325 7.56102C29.1972 7.62147 29.2495 7.69409 29.2861 7.77473C29.3228 7.85537 29.3432 7.94245 29.3462 8.03099V8.25182L25.2784 22.0823L29.1138 20.9201L28.3002 23.7094L24.4068 24.8136Z" fill="#0D6EFD"/>
</g>
<defs>
<clipPath id="clip0_9_643">
<rect width="48" height="48" fill="white"/>
</clipPath>
</defs>
</symbol>
<symbol id="wallets-dogecoin" width="48" height="48" viewBox="0 0 48 48">
<path d="M24.576 15.816H21.1469V22.5766H26.5418V25.4071H21.1469V32.1672H24.744C25.6682 32.1672 32.3318 32.2716 32.3215 24.3019C32.3112 16.3322 25.8586 15.816 24.576 15.816Z" fill="#0D6EFD"/>
<path d="M24 0C10.745 0 0 10.745 0 24C0 37.255 10.745 48 24 48C37.255 48 48 37.255 48 24C48 10.745 37.255 0 24 0ZM24.943 36.9624H16.2514V25.4074H13.1875V22.5768H16.2511V11.021H23.7108C25.4755 11.021 37.1642 10.6546 37.1642 24.2086C37.1642 37.9867 24.9432 36.9624 24.9432 36.9624H24.943Z" fill="#0D6EFD"/>
</symbol>

<!-- menu icons -->
<symbol id="menu-arrow" width="32" height="32" viewBox="0 0 32 32">
<path d="M20.7071 5.29289C21.0976 5.68342 21.0976 6.31658 20.7071 6.70711L11.4142 16L20.7071 25.2929C21.0976 25.6834 21.0976 26.3166 20.7071 26.7071C20.3166 27.0976 19.6834 27.0976 19.2929 26.7071L9.29289 16.7071C8.90237 16.3166 8.90237 15.6834 9.29289 15.2929L19.2929 5.29289C19.6834 4.90237 20.3166 4.90237 20.7071 5.29289Z"/>
</symbol>
<symbol id="menu-wallets" width="32" height="32" viewBox="0 0 32 32">
<path d="M7 7C6.73478 7 6.48043 7.10536 6.29289 7.29289C6.10536 7.48043 6 7.73478 6 8C6 8.26522 6.10536 8.51957 6.29289 8.70711C6.48043 8.89464 6.73478 9 7 9H27C27.5304 9 28.0391 9.21071 28.4142 9.58579C28.7893 9.96086 29 10.4696 29 11V25C29 25.5304 28.7893 26.0391 28.4142 26.4142C28.0391 26.7893 27.5304 27 27 27H7C6.20435 27 5.44129 26.6839 4.87868 26.1213C4.31607 25.5587 4 24.7957 4 24V8C4 7.20435 4.31607 6.44129 4.87868 5.87868C5.44129 5.31607 6.20435 5 7 5H24C24.5523 5 25 5.44772 25 6C25 6.55228 24.5523 7 24 7H7ZM6 10.8284V24C6 24.2652 6.10536 24.5196 6.29289 24.7071C6.48043 24.8946 6.73478 25 7 25H27V11H7C6.65606 11 6.3182 10.9409 6 10.8284Z" />
<path d="M22.5 19.5C23.3284 19.5 24 18.8284 24 18C24 17.1716 23.3284 16.5 22.5 16.5C21.6716 16.5 21 17.1716 21 18C21 18.8284 21.6716 19.5 22.5 19.5Z" />
</symbol>
<symbol id="menu-source-rates" width="32" height="32" viewBox="0 0 32 32">
<path d="M4 5C4.55228 5 5 5.44772 5 6V25H28C28.5523 25 29 25.4477 29 26C29 26.5523 28.5523 27 28 27H4C3.44772 27 3 26.5523 3 26V6C3 5.44772 3.44772 5 4 5Z" />
<path d="M28.7526 11.3415C29.1163 11.7571 29.0742 12.3889 28.6585 12.7526L20.6585 19.7526C20.3029 20.0637 19.778 20.0835 19.4 19.8L12.0485 14.2864L4.65852 20.7526C4.24288 21.1163 3.61112 21.0742 3.24744 20.6585C2.88375 20.2429 2.92587 19.6111 3.34151 19.2474L11.3415 12.2474C11.6971 11.9363 12.222 11.9165 12.6 12.2L19.9515 17.7137L27.3415 11.2474C27.7571 10.8838 28.3889 10.9259 28.7526 11.3415Z" />
</symbol>
<symbol id="menu-transactions" width="32" height="32" viewBox="0 0 32 32">
<path d="M21.2929 17.2929C21.6834 16.9024 22.3166 16.9024 22.7071 17.2929L26.7071 21.2929C27.0976 21.6834 27.0976 22.3166 26.7071 22.7071L22.7071 26.7071C22.3166 27.0976 21.6834 27.0976 21.2929 26.7071C20.9024 26.3166 20.9024 25.6834 21.2929 25.2929L24.5858 22L21.2929 18.7071C20.9024 18.3166 20.9024 17.6834 21.2929 17.2929Z"/>
<path d="M5 22C5 21.4477 5.44772 21 6 21H26C26.5523 21 27 21.4477 27 22C27 22.5523 26.5523 23 26 23H6C5.44772 23 5 22.5523 5 22Z"/>
<path d="M10.7071 5.29289C11.0976 5.68342 11.0976 6.31658 10.7071 6.70711L7.41421 10L10.7071 13.2929C11.0976 13.6834 11.0976 14.3166 10.7071 14.7071C10.3166 15.0976 9.68342 15.0976 9.29289 14.7071L5.29289 10.7071C4.90237 10.3166 4.90237 9.68342 5.29289 9.29289L9.29289 5.29289C9.68342 4.90237 10.3166 4.90237 10.7071 5.29289Z"/>
<path d="M5 10C5 9.44772 5.44772 9 6 9H26C26.5523 9 27 9.44772 27 10C27 10.5523 26.5523 11 26 11H6C5.44772 11 5 10.5523 5 10Z"/>
</symbol>
<symbol id="menu-logout" width="32" height="32" viewBox="0 0 32 32">
<path d="M21.0429 10.0429C21.4334 9.65237 22.0666 9.65237 22.4571 10.0429L27.7071 15.2929C28.0976 15.6834 28.0976 16.3166 27.7071 16.7071L22.4571 21.9571C22.0666 22.3476 21.4334 22.3476 21.0429 21.9571C20.6524 21.5666 20.6524 20.9334 21.0429 20.5429L25.5858 16L21.0429 11.4571C20.6524 11.0666 20.6524 10.4334 21.0429 10.0429Z" />
<path d="M12 16C12 15.4477 12.4477 15 13 15H27C27.5523 15 28 15.4477 28 16C28 16.5523 27.5523 17 27 17H13C12.4477 17 12 16.5523 12 16Z" />
<path d="M4.58579 4.58579C4.96086 4.21071 5.46957 4 6 4H13C13.5523 4 14 4.44772 14 5C14 5.55228 13.5523 6 13 6L6 6L6 26H13C13.5523 26 14 26.4477 14 27C14 27.5523 13.5523 28 13 28H6C5.46957 28 4.96086 27.7893 4.58579 27.4142C4.21071 27.0391 4 26.5304 4 26V6C4 5.46957 4.21071 4.96086 4.58579 4.58579Z" />
</symbol>





</defs>
</svg>









